<svg class="img-fluid" id="outputsvg" xmlns="http://www.w3.org/2000/svg" style="transform: matrix(0.769231, 0, 0, 0.769231, 0, 0); transform-origin: 50% 50% 0px; cursor: move; transition: none 0s ease 0s;" width="1597" height="430" viewBox="0 0 15970 4300">

    <g id="lHfHRbbrGcYMqnSn9oY628" fill="rgb(6,57,107)" style="transform: none;">
        <g>
            <path id="pWvzol6MQ" d="M200 4275 c-16 -43 -48 -175 -62 -260 -19 -120 -17 -536 5 -700 36 -272 113 -602 207 -897 32 -102 44 -128 59 -128 16 0 21 20 39 158 74 542 62 1085 -32 1550 -14 68 -23 129 -20 136 5 14 -72 89 -143 138 l-43 29 -10 -26z"></path>
            <path id="pVhrtCt0s" d="M2043 3952 c-20 -13 -33 -179 -33 -443 0 -462 56 -860 200 -1424 82 -322 165 -583 196 -614 24 -24 28 -33 39 -102 4 -29 11 -38 30 -42 29 -5 28 3 -5 78 -22 50 -33 85 -26 85 8 0 77 -127 112 -208 18 -42 35 -70 38 -62 2 8 7 74 10 145 6 127 11 172 56 460 42 268 30 386 -60 603 -21 50 -37 92 -36 92 5 0 86 -117 111 -162 l25 -43 0 132 c0 374 -78 601 -296 858 l-59 70 80 -65 c44 -36 99 -83 123 -106 47 -46 47 -45 1 76 -87 229 -242 455 -426 623 -35 31 -64 57 -65 57 -2 0 -9 -4 -15 -8z"></path>
            <path id="p04kVLt7W" d="M7940 3050 l0 -40 258 -2 257 -3 3 -197 2 -198 -208 0 c-148 0 -211 3 -220 12 -8 8 -12 46 -12 103 0 57 4 95 12 103 9 9 68 12 205 12 l193 0 0 40 0 40 -195 0 c-286 0 -295 -6 -295 -192 0 -202 -7 -198 339 -198 l261 0 0 251 0 251 -29 29 -29 29 -271 0 -271 0 0 -40z"></path>
            <path id="pimFvGNVC" d="M15210 3050 l0 -40 253 0 c183 0 256 -3 265 -12 7 -7 12 -27 12 -45 l0 -33 -215 0 c-316 0 -315 1 -315 -240 l0 -150 40 0 40 0 0 139 c0 114 3 142 16 155 14 14 44 16 222 14 l207 -3 3 -152 3 -153 40 0 40 0 -3 251 -3 251 -33 29 -32 29 -270 0 -270 0 0 -40z"></path>
            <path id="peuLMXcLN" d="M3860 2695 l0 -225 -140 0 -140 0 0 -40 0 -40 320 0 320 0 0 40 0 40 -140 0 -140 0 0 225 0 225 -40 0 -40 0 0 -225z"></path>
            <path id="p1D0i908Fo" d="M4360 2902 c-45 -22 -59 -62 -59 -172 -1 -112 12 -156 52 -180 29 -18 52 -20 261 -20 l228 0 34 34 c33 33 34 36 34 115 l0 81 -245 0 -245 0 0 -40 0 -40 205 0 205 0 0 -23 c0 -44 -12 -47 -227 -47 -237 0 -223 -7 -223 118 0 117 -14 112 283 112 l247 0 0 40 0 40 -257 0 c-226 0 -262 -2 -293 -18z"></path>
            <path id="poMt6HMK3" d="M5073 2913 c-12 -2 -34 -18 -48 -34 -24 -29 -25 -37 -25 -149 0 -71 5 -130 12 -145 23 -51 45 -55 328 -55 l260 0 0 40 0 40 -248 0 c-180 0 -251 3 -260 12 -8 8 -12 46 -12 103 0 57 4 95 12 103 9 9 80 12 260 12 l248 0 0 40 0 40 -252 -1 c-139 -1 -263 -4 -275 -6z"></path>
            <path id="pfHdOjli" d="M5690 2725 l0 -195 263 0 c289 0 300 2 329 60 15 29 18 62 18 183 l0 147 -40 0 -40 0 0 -144 c0 -110 -3 -146 -14 -155 -9 -8 -77 -11 -222 -9 l-209 3 -3 153 -3 152 -39 0 -40 0 0 -195z"></path>
            <path id="p1GKNOUvT2" d="M6445 2906 c-47 -21 -59 -51 -63 -156 -5 -122 8 -174 51 -200 29 -18 52 -20 261 -20 l228 0 34 34 34 34 0 119 c0 199 -7 203 -305 203 -153 -1 -218 -4 -240 -14z m453 -78 c8 -8 12 -46 12 -103 0 -57 -4 -95 -12 -103 -9 -9 -70 -12 -215 -12 -236 0 -223 -7 -223 116 0 118 -7 114 230 114 139 0 199 -3 208 -12z"></path>
            <path id="p1GULfiqOh" d="M7080 2640 l0 -280 40 0 40 0 0 280 0 280 -40 0 -40 0 0 -280z"></path>
            <path id="p13rJxMChF" d="M7306 2905 c-51 -27 -55 -40 -56 -178 0 -71 5 -137 10 -148 24 -44 56 -49 290 -49 302 0 300 -1 300 198 0 188 -7 192 -307 192 -166 0 -214 -3 -237 -15z m452 -77 c18 -18 16 -192 -2 -207 -9 -8 -75 -11 -217 -9 l-204 3 -3 99 c-2 64 1 103 9 112 15 19 398 21 417 2z"></path>
            <path id="p19qcQ0WKK" d="M8630 2725 l0 -195 40 0 40 0 0 195 0 195 -40 0 -40 0 0 -195z"></path>
            <path id="ptyvsW8cJ" d="M8860 2902 c-51 -25 -60 -51 -60 -185 l0 -119 34 -34 34 -34 271 0 271 0 0 40 0 40 -253 0 c-183 0 -256 3 -265 12 -8 8 -12 46 -12 103 0 57 4 95 12 103 9 9 82 12 265 12 l253 0 0 40 0 40 -257 0 c-226 0 -262 -2 -293 -18z"></path>
            <path id="p1Z0HAGgR" d="M9552 2905 c-47 -21 -62 -64 -62 -182 0 -109 16 -158 60 -180 18 -9 91 -13 252 -13 l228 0 32 29 33 29 3 124 c4 204 -2 208 -303 208 -159 -1 -218 -4 -243 -15z m449 -75 c17 -9 19 -22 19 -103 0 -59 -4 -97 -12 -105 -9 -9 -70 -12 -215 -12 -237 0 -223 -7 -223 119 0 115 -8 111 221 111 112 0 198 -4 210 -10z"></path>
            <path id="p8MchN3sn" d="M10593 2913 c-12 -2 -34 -18 -48 -34 -24 -29 -25 -37 -25 -149 0 -200 0 -200 285 -200 l205 0 0 40 0 40 -193 0 c-137 0 -196 3 -205 12 -16 16 -16 190 0 206 9 9 72 12 220 12 l208 0 0 -240 0 -240 40 0 40 0 0 280 0 280 -252 -1 c-139 -1 -263 -4 -275 -6z"></path>
            <path id="pdLy104HS" d="M11273 2905 c-54 -23 -65 -60 -61 -196 3 -114 4 -120 31 -146 l27 -28 228 -3 c139 -2 239 1 255 7 45 17 67 66 67 149 l0 72 -245 0 -245 0 0 -40 0 -40 205 0 205 0 0 -23 c0 -13 -5 -28 -12 -35 -17 -17 -409 -17 -426 0 -8 8 -12 46 -12 105 0 81 2 94 19 103 12 6 115 10 265 10 l246 0 0 40 0 40 -257 0 c-197 -1 -266 -4 -290 -15z"></path>
            <path id="pbIaxQjQE" d="M11910 2640 l0 -280 35 0 35 0 0 280 0 280 -35 0 -35 0 0 -280z"></path>
            <path id="p605cCWtn" d="M12401 2713 c0 -234 6 -265 58 -300 33 -22 41 -23 263 -23 332 0 318 -14 318 310 l0 220 -35 0 -34 0 -3 -112 -3 -113 -240 0 -240 0 -3 113 -3 112 -39 0 -40 0 1 -207z m567 -159 c-3 -40 -10 -61 -23 -70 -14 -11 -68 -14 -226 -14 -203 0 -208 0 -223 22 -9 13 -16 43 -16 70 l0 48 246 0 246 0 -4 -56z"></path>
            <path id="pQl66yNLv" d="M13146 2904 c-17 -16 -21 -61 -8 -80 4 -7 99 -53 212 -104 113 -51 209 -96 215 -101 5 -5 -86 -9 -213 -9 l-222 0 0 -40 0 -40 295 0 c281 0 295 1 305 19 17 33 12 69 -12 85 -13 8 -111 54 -218 102 -107 48 -199 91 -204 96 -6 4 92 8 217 8 l227 0 0 40 0 40 -289 0 c-250 0 -292 -2 -305 -16z"></path>
            <path id="pM85E0Ycf" d="M13886 2905 c-53 -28 -55 -37 -56 -212 l0 -163 40 0 40 0 0 143 c0 98 4 147 12 155 17 17 399 17 416 0 8 -8 12 -57 12 -155 l0 -143 40 0 40 0 0 158 c0 234 3 232 -307 232 -166 0 -214 -3 -237 -15z"></path>
            <path id="pBc6iSVfj" d="M14584 2906 c-17 -8 -39 -24 -48 -37 -19 -28 -22 -116 -4 -154 22 -50 49 -55 273 -55 l205 0 0 40 0 40 -193 0 c-207 0 -217 2 -217 50 0 48 9 50 232 50 l209 0 -3 -112 -3 -113 -247 -3 -248 -2 0 -40 0 -40 250 0 c266 0 296 5 320 49 6 11 10 89 10 180 l0 161 -252 0 c-191 -1 -261 -4 -284 -14z"></path>
            <path id="pxl8IDRMS" d="M7450 2475 c0 -3 23 -39 50 -80 l51 -75 50 0 51 0 -18 28 c-91 140 -83 132 -135 132 -27 0 -49 -2 -49 -5z"></path>
            <path id="p12QnoK8Us" d="M8630 2440 l0 -40 40 0 40 0 0 40 0 40 -40 0 -40 0 0 -40z"></path>
            <path id="pEJOSLjVE" d="M1786 2138 c-2 -18 -17 -175 -32 -348 -32 -368 -36 -621 -10 -772 99 -592 559 -958 1201 -958 186 0 198 14 60 66 -456 173 -792 567 -1000 1175 -75 220 -146 542 -180 817 -8 60 -31 72 -39 20z"></path>
            <path id="p1HbSvr5Ks" d="M10690 1894 l0 -195 191 3 c187 3 191 4 210 27 15 19 19 39 19 108 0 76 -2 86 -25 108 -23 24 -28 25 -170 25 l-145 0 0 -30 0 -30 140 0 141 0 -3 -72 -3 -73 -147 -3 -148 -3 0 166 0 165 -30 0 -30 0 0 -196z"></path>
            <path id="ppVQW4ba7" d="M6560 1790 l0 -180 25 0 25 0 0 180 0 180 -25 0 -25 0 0 -180z"></path>
            <path id="pAWuclZNk" d="M6680 1834 l0 -135 186 3 c233 4 224 -2 224 159 l0 109 -25 0 c-25 0 -25 -1 -25 -89 0 -49 -3 -96 -6 -105 -5 -14 -28 -16 -155 -16 l-149 0 0 105 0 105 -25 0 -25 0 0 -136z"></path>
            <path id="p1CWLCPtg0" d="M7160 1940 l0 -30 175 0 c165 0 175 -1 175 -19 0 -28 -18 -31 -176 -31 -131 0 -146 -2 -164 -20 -26 -26 -26 -80 -1 -111 19 -23 24 -24 205 -27 l186 -3 0 30 0 31 -172 2 c-165 3 -173 4 -173 23 0 19 8 20 158 25 152 5 160 6 178 29 26 32 24 77 -6 106 -24 25 -26 25 -205 25 l-180 0 0 -30z"></path>
            <path id="poBWAKajr" d="M7650 1950 c-18 -18 -20 -33 -20 -165 l0 -145 25 0 c21 0 25 5 25 30 l0 30 65 0 65 0 0 30 0 30 -65 0 -66 0 3 73 3 72 78 3 77 3 0 29 0 30 -85 0 c-72 0 -88 -3 -105 -20z"></path>
            <path id="puYMVwt7s" d="M7890 1835 l0 -135 30 0 30 0 0 135 0 135 -30 0 -30 0 0 -135z"></path>
            <path id="poa2iRWfo" d="M8030 1950 c-18 -18 -20 -33 -20 -165 l0 -145 25 0 c21 0 25 5 25 30 l0 30 65 0 65 0 0 30 0 30 -65 0 -66 0 3 73 3 72 78 3 77 3 0 29 0 30 -85 0 c-72 0 -88 -3 -105 -20z"></path>
            <path id="pWzx6M201" d="M8295 1945 c-24 -23 -25 -31 -25 -135 l0 -110 30 0 30 0 0 105 0 106 148 -3 147 -3 3 -102 3 -103 29 0 30 0 0 110 c0 104 -1 112 -25 135 -24 24 -27 25 -185 25 -158 0 -161 -1 -185 -25z"></path>
            <path id="pFeXOFnoe" d="M8770 1950 c-18 -18 -20 -33 -20 -165 l0 -145 25 0 c21 0 25 5 25 30 l0 30 65 0 65 0 0 30 0 30 -65 0 -66 0 3 73 3 72 78 3 77 3 0 29 0 30 -85 0 c-72 0 -88 -3 -105 -20z"></path>
            <path id="pvHJdVFOd" d="M9035 1945 c-23 -22 -25 -32 -25 -108 0 -69 4 -89 19 -108 19 -24 23 -24 190 -24 210 0 204 -3 209 125 4 84 3 90 -22 114 -25 26 -27 26 -186 26 -158 0 -161 -1 -185 -25z m333 -107 l-3 -73 -145 0 -145 0 -3 73 -3 72 151 0 151 0 -3 -72z"></path>
            <path id="pkzGpoj2t" d="M9730 1940 l0 -30 182 -2 c200 -3 199 -3 184 -64 l-6 -24 -151 0 c-202 0 -219 -9 -219 -114 0 -42 5 -57 23 -74 22 -21 32 -22 210 -22 l187 0 0 25 0 25 -166 0 c-95 0 -174 4 -185 10 -22 12 -26 59 -7 78 8 8 59 12 164 12 147 0 154 1 181 24 24 21 27 31 27 81 0 50 -3 60 -27 81 -27 23 -33 24 -213 24 l-184 0 0 -30z"></path>
            <path id="pBITaWrkO" d="M10242 1954 c-21 -14 -22 -22 -22 -135 l0 -119 25 0 c24 0 24 1 27 103 l3 102 150 0 150 0 3 -102 c3 -102 3 -103 27 -103 l25 0 0 115 c0 160 7 155 -203 155 -131 0 -167 -3 -185 -16z"></path>
            <path id="p1H411C8Gd" d="M11190 1950 c-17 -17 -20 -33 -20 -113 0 -130 1 -131 178 -135 214 -6 232 2 232 99 l0 59 -165 0 -165 0 0 -25 0 -24 138 -3 c129 -3 137 -4 137 -23 0 -19 -8 -20 -147 -23 -169 -3 -162 -7 -156 94 l3 49 178 3 177 2 0 30 0 30 -185 0 c-172 0 -186 -1 -205 -20z"></path>
            <path id="p1Gm2mBvjR" d="M11640 1876 c0 -163 14 -176 181 -176 l99 0 0 30 0 29 -107 3 -108 3 -3 103 -3 102 -29 0 -30 0 0 -94z"></path>
            <path id="pXaajmRHd" d="M11970 1835 l0 -135 30 0 30 0 0 135 0 135 -30 0 -30 0 0 -135z"></path>
            <path id="p17MM6ZGkH" d="M12110 1950 c-17 -17 -20 -33 -20 -113 0 -134 -3 -132 205 -132 208 0 205 -2 205 132 0 135 4 133 -205 133 -152 0 -167 -2 -185 -20z m335 -115 l0 -70 -150 0 -150 0 -3 59 c-2 32 -1 65 2 73 5 11 35 13 153 11 l148 -3 0 -70z"></path>
            <path id="phNfkqCaF" d="M12560 1873 c0 -54 3 -108 6 -121 11 -39 53 -52 164 -52 l100 0 0 30 0 29 -102 3 -103 3 -3 103 -3 102 -29 0 -30 0 0 -97z"></path>
            <path id="p6QMs2Gea" d="M7890 1645 c0 -21 5 -25 30 -25 25 0 30 4 30 25 0 21 -5 25 -30 25 -25 0 -30 -4 -30 -25z"></path>
            <path id="pW2eGGOZZ" d="M11970 1645 c0 -21 5 -25 30 -25 25 0 30 4 30 25 0 21 -5 25 -30 25 -25 0 -30 -4 -30 -25z"></path>
            <path id="piVuyHGhA" d="M2490 1256 c0 -32 3 -36 25 -36 24 0 25 1 12 32 -19 46 -37 48 -37 4z"></path>
        </g>
    </g>
    <g id="lx5zsGCZ0FQ72RarSVFCYQ" fill="rgb(28,43,84)" style="transform: none;">
        <g>
            <path id="p9koT3Z5L" d="M1310 4294 c0 -3 13 -23 29 -43 155 -196 292 -494 365 -791 75 -306 98 -577 94 -1075 l-2 -350 31 -175 c95 -520 243 -913 461 -1220 86 -121 233 -274 342 -356 153 -116 403 -227 480 -214 l35 6 -40 12 c-93 27 -222 127 -300 232 -105 143 -184 393 -200 640 -5 70 -15 116 -37 175 -16 44 -38 103 -48 130 -10 28 -32 87 -49 132 -17 45 -31 88 -31 94 0 7 -6 17 -14 23 -33 25 -206 642 -275 976 -41 199 -77 443 -96 639 -17 186 -20 548 -5 690 10 90 21 116 45 104 27 -13 -69 63 -140 111 -158 108 -346 194 -511 235 -117 29 -134 32 -134 25z"></path>
            <path id="p1G2ucy9cx" d="M361 4161 c-9 -6 -12 -19 -8 -37 96 -449 127 -803 107 -1196 -12 -242 -53 -596 -70 -608 -4 -3 2 -29 13 -58 l20 -54 34 59 c68 117 113 220 133 303 25 107 26 248 1 343 l-17 67 24 -22 c29 -27 72 -113 72 -145 0 -12 4 -24 9 -27 5 -4 21 43 35 102 29 120 35 269 15 364 -13 59 -56 162 -90 211 -21 30 -20 30 21 -8 23 -22 55 -58 71 -79 16 -21 29 -36 29 -31 0 4 -7 54 -16 112 -35 242 -148 477 -313 653 -41 45 -60 58 -70 51z"></path>
        </g>
    </g>
    <g id="l6yrMrzynKXrR9xG4WZqcW1" fill="rgb(179,146,29)" style="transform: none;">
        <g>
            <path id="pNnGbd59p" d="M850 4296 c0 -2 5 -17 11 -33 30 -78 71 -274 85 -408 26 -238 13 -490 -42 -825 -16 -100 -21 -156 -14 -158 5 -2 10 -19 10 -37 0 -18 5 -35 10 -37 6 -2 15 -30 21 -63 6 -33 22 -114 35 -180 32 -160 64 -351 64 -384 0 -15 3 -31 6 -34 4 -3 8 -26 9 -49 1 -24 6 -79 11 -123 10 -102 10 -334 0 -450 -7 -85 -6 -89 9 -65 15 24 16 22 10 -50 -3 -41 -14 -115 -23 -163 -16 -75 -16 -91 -5 -107 16 -23 33 -26 33 -7 0 7 22 30 49 50 119 91 371 386 371 435 0 6 5 12 10 12 6 0 10 15 10 34 0 37 -36 197 -51 227 -5 11 -14 28 -20 40 -6 12 -8 23 -6 25 5 6 84 -117 96 -149 6 -15 10 10 15 78 4 55 12 150 18 210 22 232 -26 515 -118 697 -19 37 -32 68 -29 68 12 0 110 -143 143 -209 l37 -75 7 154 c4 85 5 184 2 220 -7 81 -40 232 -61 279 -60 138 -123 239 -203 325 l-55 60 50 -34 c28 -19 76 -59 108 -89 56 -53 58 -54 51 -26 -24 97 -190 371 -316 520 -105 125 -338 347 -338 321z"></path>
        </g>
    </g>
    <g id="l1LwXsZI9fdkryd67KwaY41" fill="rgb(235,192,36)" style="transform: none;">
        <g>
            <path id="peitbAYVV" d="M877 2873 c-10 -54 -40 -190 -67 -303 -78 -328 -85 -372 -84 -575 0 -140 4 -195 18 -250 47 -183 117 -343 214 -489 l47 -71 2 35 c7 89 54 250 73 250 5 0 9 24 11 52 5 98 3 392 -3 473 -4 44 -7 99 -7 122 0 23 -4 44 -9 47 -5 3 -7 17 -5 31 3 13 2 33 -2 42 -4 10 -7 30 -6 45 1 14 -2 29 -8 32 -6 4 -8 13 -4 21 3 8 2 23 -2 33 -5 9 -7 27 -6 40 1 12 -2 22 -8 22 -6 0 -8 7 -5 15 4 8 3 23 -1 33 -5 9 -7 27 -6 40 1 12 -2 22 -7 22 -6 0 -8 9 -5 20 3 11 1 20 -4 20 -6 0 -8 11 -5 25 2 14 0 25 -6 25 -6 0 -8 9 -5 20 3 12 0 20 -6 20 -7 0 -9 5 -6 11 8 11 -24 149 -34 149 -3 0 -7 14 -7 32 -1 18 -6 34 -13 36 -6 2 -9 8 -6 12 7 11 -5 60 -14 60 -3 0 -14 -44 -24 -97z"></path>
            <path id="pcCB34U0J" d="M1492 1673 c-6 -2 -10 -9 -6 -14 3 -5 0 -9 -5 -9 -6 0 -11 -6 -11 -12 0 -48 -221 -309 -355 -421 -33 -27 -63 -59 -67 -69 -7 -16 20 -48 145 -172 146 -147 183 -175 368 -289 l61 -38 -7 28 c-53 212 -75 394 -81 678 -5 249 -10 326 -22 324 -4 0 -13 -3 -20 -6z"></path>
        </g>
    </g>
    <g id="l1KJ4ucyiMFDwRgbXAUZELq" fill="rgb(131,156,181)" style="transform: none;">
        <g></g>
    </g>
</svg>