<svg class="img-fluid" id="outputsvg" xmlns="http://www.w3.org/2000/svg" style="transform: matrix(1, 0, 0, 1, 0, 0); transform-origin: 50% 50% 0px; cursor: move; transition: none 0s ease 0s;" width="1670" height="1224" viewBox="0 0 16700 12240">

    <g id="lvqUaYPZfNWn4xJueB9FTX" fill="rgb(0,53,108)" style="transform: none;">
        <g>
            <path id="ppD4dyQTS" d="M5962 12190 l0 -50 347 0 c257 0 350 -3 359 -12 9 -9 12 -84 12 -275 l0 -263 -288 0 c-211 0 -291 3 -300 12 -18 18 -17 277 1 284 7 2 132 6 278 7 l264 2 3 58 3 57 -281 0 c-188 0 -289 -4 -303 -11 -81 -42 -101 -103 -96 -289 5 -147 19 -182 86 -216 41 -21 55 -22 392 -22 l350 0 3 319 c2 175 0 332 -3 350 -4 17 -22 46 -40 65 l-33 34 -377 0 -378 0 1 -50z"></path>
            <path id="pDOTOhv5w" d="M15882 12190 l0 -50 347 0 c257 0 350 -3 359 -12 7 -7 12 -36 12 -65 l0 -52 -314 -3 -315 -3 -36 -35 c-19 -19 -40 -51 -45 -72 -12 -42 -13 -398 -1 -416 4 -7 27 -11 54 -9 l48 2 2 198 c2 173 4 200 19 211 12 9 89 12 300 10 l283 -2 5 -208 5 -208 48 -3 47 -3 0 354 0 354 -35 31 -36 31 -374 0 -374 0 1 -50z"></path>
            <path id="pRa149p0e" d="M398 11704 l-3 -305 -187 0 -188 0 0 -59 0 -60 436 2 436 3 1 55 1 55 -189 2 -190 2 -3 305 -2 306 -55 0 -55 0 -2 -306z"></path>
            <path id="pZJjd4kK" d="M1094 11996 c-17 -8 -42 -29 -55 -47 -23 -33 -24 -41 -24 -206 0 -188 3 -198 69 -247 26 -20 42 -21 325 -23 290 -2 299 -2 341 20 74 37 84 61 88 193 l4 114 -340 0 -339 0 2 -52 c2 -29 3 -56 4 -60 0 -3 124 -5 275 -5 267 2 275 1 278 -18 2 -11 1 -31 -2 -45 l-6 -25 -289 0 -290 0 -5 138 c-4 106 -2 141 8 149 8 7 129 11 355 12 l342 1 3 58 3 57 -358 0 c-278 -1 -365 -4 -389 -14z"></path>
            <path id="pM5Ac7t69" d="M2030 11988 c-64 -44 -72 -68 -72 -248 0 -181 8 -207 72 -245 33 -19 54 -20 375 -22 187 -2 350 -1 363 2 22 5 23 10 20 58 l-4 52 -344 3 c-233 1 -348 6 -357 13 -17 15 -19 274 -2 285 6 4 163 6 349 5 276 -2 339 0 348 12 6 7 10 33 9 58 l-3 44 -360 3 c-360 2 -361 2 -394 -20z"></path>
            <path id="p12Ukz7AtJ" d="M2902 11743 l3 -268 362 0 c350 0 362 1 389 21 68 50 69 54 72 295 l3 219 -58 0 -58 0 2 -185 c1 -103 -2 -197 -7 -211 l-10 -24 -292 2 -293 3 -3 208 -2 207 -55 0 -55 0 2 -267z"></path>
            <path id="pGDjvSB4g" d="M3920 11987 c-66 -44 -75 -73 -75 -247 0 -180 10 -209 82 -246 40 -21 57 -22 330 -22 321 0 348 4 392 67 21 29 22 41 22 203 0 190 -2 199 -71 246 -32 22 -38 22 -340 22 -302 0 -308 0 -340 -23z m633 -106 c14 -14 12 -258 -3 -276 -18 -22 -561 -22 -579 -1 -8 9 -11 57 -9 147 l3 134 50 5 c84 8 528 1 538 -9z"></path>
            <path id="p7N9biyWY" d="M4790 11620 l0 -390 61 0 60 0 -3 388 -3 387 -57 3 -58 3 0 -391z"></path>
            <path id="pYrN3saKk" d="M5102 11993 c-18 -9 -43 -30 -55 -47 -21 -29 -22 -41 -22 -203 0 -196 4 -209 86 -251 43 -22 48 -23 341 -20 282 3 298 4 324 24 66 49 69 59 69 247 0 162 -1 174 -22 203 -44 62 -59 64 -390 64 -254 0 -303 -3 -331 -17z m624 -114 c15 -12 17 -228 3 -266 l-9 -23 -284 0 c-272 0 -286 1 -296 19 -5 11 -10 72 -10 135 0 97 3 119 18 134 15 15 41 17 291 15 179 -2 278 -7 287 -14z"></path>
            <path id="pmZms24M9" d="M6910 11742 l0 -269 48 -1 c26 -1 53 2 60 7 11 7 13 59 10 267 l-3 259 -57 3 -58 3 0 -269z"></path>
            <path id="pnWHwNand" d="M7222 11993 c-18 -9 -43 -30 -55 -47 -20 -28 -22 -45 -25 -187 -4 -179 3 -209 64 -255 l37 -29 361 0 361 0 3 58 3 57 -350 0 c-336 0 -351 1 -361 19 -16 31 -13 256 4 270 10 8 115 12 357 14 l344 2 3 58 3 57 -358 0 c-309 0 -362 -3 -391 -17z"></path>
            <path id="pteeI8Z3X" d="M8160 11987 c-66 -44 -75 -73 -75 -247 0 -180 10 -210 82 -246 39 -20 57 -21 332 -22 279 0 292 0 333 21 72 37 79 60 79 253 0 186 -3 195 -71 242 -32 22 -38 22 -340 22 -302 0 -308 0 -340 -23z m628 -102 c17 -6 17 -266 0 -283 -19 -19 -561 -17 -577 2 -8 9 -11 57 -9 147 l3 134 40 5 c49 6 525 2 543 -5z"></path>
            <path id="pURRrSwOh" d="M9574 12000 c-32 -13 -82 -77 -89 -114 -4 -19 -5 -97 -3 -174 3 -133 4 -140 30 -174 48 -62 77 -67 378 -65 245 2 265 3 264 20 -1 9 -2 35 -3 57 l-1 40 -262 0 c-148 0 -270 4 -278 10 -12 7 -15 35 -15 139 0 88 4 134 12 142 9 9 86 12 300 11 l288 -2 3 -330 2 -330 61 0 c52 0 60 2 55 16 -3 9 -6 184 -6 390 l0 374 -357 -1 c-197 0 -367 -4 -379 -9z"></path>
            <path id="phNwoJv9d" d="M10499 11987 c-63 -41 -70 -70 -67 -259 l3 -167 35 -36 c19 -19 50 -39 70 -44 19 -5 160 -9 312 -9 265 -1 278 0 319 21 72 37 83 61 88 193 l3 114 -341 0 -342 0 3 -57 3 -58 270 -2 c149 -2 276 -3 284 -3 17 0 8 -69 -11 -82 -22 -13 -562 -10 -576 4 -14 14 -17 255 -3 277 8 12 68 15 358 15 l348 1 3 58 3 57 -364 0 c-362 0 -364 0 -398 -23z"></path>
            <path id="p8KnCIIcx" d="M11378 11823 c1 -103 2 -279 2 -390 l0 -203 56 0 55 0 -3 388 -3 387 -55 3 -55 3 3 -188z"></path>
            <path id="p12edrLtOP" d="M12057 11718 c1 -161 5 -304 8 -317 11 -42 46 -82 89 -102 37 -17 70 -19 332 -19 310 0 338 3 388 49 54 49 56 65 56 386 l0 295 -55 0 -55 0 0 -152 0 -153 -326 2 -326 3 -2 147 -1 148 -55 3 -55 3 2 -293z m763 -202 c0 -123 18 -117 -324 -117 -339 -1 -322 -7 -330 105 -3 38 -3 73 0 77 3 5 151 9 330 9 l324 0 0 -74z"></path>
            <path id="pVQsDOuHy" d="M13064 11989 c-23 -25 -25 -93 -4 -113 8 -8 146 -74 305 -148 l290 -133 -305 -5 -305 -5 -3 -34 c-2 -19 -1 -44 2 -56 l6 -22 387 -1 c451 -1 433 -4 433 84 l0 55 -102 48 c-144 68 -235 110 -293 136 -120 54 -205 95 -205 97 0 2 135 2 300 1 l300 -3 0 60 0 60 -393 0 c-386 0 -394 0 -413 -21z"></path>
            <path id="pKUonGx1n" d="M14085 12000 c-28 -11 -72 -60 -84 -93 -7 -17 -11 -112 -11 -231 l0 -203 53 2 c28 1 56 3 60 4 4 0 7 89 6 197 -1 136 2 199 10 207 17 17 572 11 583 -6 4 -7 8 -101 8 -209 l0 -196 53 1 52 2 3 216 c2 210 2 216 -21 250 -44 67 -57 69 -392 68 -165 0 -309 -4 -320 -9z"></path>
            <path id="p8haByPEr" d="M15012 11990 c-52 -32 -72 -74 -72 -153 0 -82 25 -138 73 -164 28 -16 67 -18 315 -21 l283 -3 -3 57 -3 58 -261 1 c-291 1 -294 1 -294 64 0 67 -12 64 312 63 l293 -2 2 -125 c1 -69 -2 -137 -7 -150 l-10 -25 -340 0 -341 0 3 -57 3 -58 350 0 c346 0 350 0 381 22 67 48 69 56 72 296 l3 217 -363 0 c-345 0 -365 -1 -396 -20z"></path>
            <path id="p2HjdU3dV" d="M5291 11411 c0 -3 35 -58 78 -121 l77 -115 61 -3 c34 -1 63 1 66 5 3 4 -30 60 -72 123 l-76 115 -68 1 c-37 0 -67 -2 -66 -5z"></path>
            <path id="p3YowNMVW" d="M6914 11411 c-2 -2 -4 -29 -4 -58 l0 -54 58 3 57 3 0 55 0 55 -53 0 c-30 0 -55 -2 -58 -4z"></path>
            <path id="p13PmRQxeD" d="M9820 10805 l0 -286 276 3 276 3 29 33 c29 32 29 33 29 161 0 195 -8 201 -295 201 -99 0 -185 -4 -191 -8 -6 -4 -9 -23 -6 -44 l4 -38 202 -2 201 -3 3 -99 c1 -55 -1 -103 -6 -108 -5 -5 -105 -9 -221 -10 l-213 0 -1 238 -2 239 -42 3 -43 3 0 -286z"></path>
            <path id="pNzlb3N9" d="M3763 10904 c-2 -6 -3 -125 -1 -265 l3 -254 43 -3 42 -3 0 270 0 270 -41 -2 c-23 -1 -43 -6 -46 -13z"></path>
            <path id="p18DRN6yyy" d="M3934 10905 c-3 -6 -3 -94 -2 -196 l3 -184 263 -3 c361 -3 355 -8 350 245 l-3 147 -40 0 -40 1 -2 -144 c-1 -79 -6 -148 -10 -152 -5 -5 -104 -10 -221 -12 l-212 -2 -2 155 -3 154 -38 2 c-22 0 -41 -4 -43 -11z"></path>
            <path id="pCPb0iRFk" d="M4656 10913 c-3 -4 -6 -24 -6 -44 l0 -39 253 -2 252 -3 0 -30 0 -30 -231 -5 c-210 -5 -234 -7 -253 -24 -56 -50 -49 -159 12 -196 30 -18 52 -20 290 -20 l257 0 0 43 0 42 -238 -1 c-130 0 -245 4 -254 8 -10 5 -18 20 -18 33 l0 25 208 1 c226 0 262 7 296 52 28 38 28 117 0 148 -40 45 -70 50 -323 49 -132 -1 -242 -4 -245 -7z"></path>
            <path id="pAvY47qWI" d="M5414 10913 c-12 -2 -34 -18 -50 -34 l-29 -30 -3 -208 -3 -208 40 -1 40 -2 3 43 3 42 98 3 97 3 0 45 0 46 -97 -3 -98 -3 -3 85 c-1 47 2 98 7 112 10 27 11 27 121 27 l110 0 -3 43 -3 42 -104 1 c-58 0 -115 -1 -126 -3z"></path>
            <path id="pdLIGzWlF" d="M5717 10912 c-2 -4 -3 -92 -2 -197 l1 -190 42 -3 42 -3 -2 197 -3 198 -37 2 c-21 2 -39 0 -41 -4z"></path>
            <path id="p6H2Sa5h0" d="M5961 10907 c-19 -7 -44 -25 -55 -40 -19 -26 -21 -44 -24 -209 -4 -225 -4 -228 48 -228 l40 0 0 45 0 44 98 3 97 3 0 40 0 40 -50 1 c-27 1 -72 2 -98 3 l-48 1 3 108 3 107 113 3 113 3 -3 41 -3 41 -100 3 c-56 1 -115 -3 -134 -9z"></path>
            <path id="p3olCQanm" d="M6344 10905 c-62 -26 -65 -38 -67 -217 l-2 -163 42 -3 42 -3 3 153 3 153 215 0 215 0 3 -153 3 -153 42 3 42 3 -2 164 c-3 182 -6 190 -72 218 -43 18 -423 17 -467 -2z"></path>
            <path id="pQ25eX7Nx" d="M7054 10913 c-12 -2 -34 -18 -50 -34 l-29 -30 -3 -210 -3 -209 40 0 c40 0 40 0 43 43 l3 42 98 3 97 3 0 45 0 46 -97 -3 -98 -3 -3 85 c-1 47 2 98 7 112 10 27 11 27 121 27 l110 0 -3 43 -3 42 -104 1 c-58 0 -115 -1 -126 -3z"></path>
            <path id="p1H5CrXPit" d="M7465 10914 c-5 -1 -23 -5 -38 -8 -52 -12 -67 -55 -67 -192 0 -193 7 -197 333 -192 l219 3 29 33 c29 32 29 34 29 155 0 202 -11 210 -308 206 -103 -1 -191 -3 -197 -5z m415 -184 c3 -52 4 -101 2 -107 -3 -10 -56 -13 -218 -13 -164 0 -214 3 -214 13 -4 91 -1 187 4 196 5 8 67 11 214 9 l207 -3 5 -95z"></path>
            <path id="poyDS1aQG" d="M8406 10912 c-8 -7 -8 -46 0 -66 5 -14 38 -16 258 -16 288 0 289 0 288 -70 -1 -69 -5 -70 -249 -70 -237 0 -258 -4 -293 -63 -28 -45 -27 -140 0 -185 35 -58 60 -62 350 -62 l261 0 -3 43 -3 42 -265 5 -265 5 -8 35 c-6 21 -5 45 2 62 l10 27 230 3 c214 3 232 4 258 24 47 34 65 80 60 152 -4 53 -10 69 -33 93 -15 16 -45 34 -66 40 -39 10 -522 12 -532 1z"></path>
            <path id="p14QwcwGL5" d="M9209 10913 c-15 -2 -39 -18 -55 -34 l-29 -30 -3 -165 -4 -164 46 0 45 0 3 153 3 152 215 0 215 0 3 -153 3 -153 40 3 41 3 -1 165 c-2 153 -3 166 -23 187 -12 13 -39 28 -60 33 -34 10 -376 11 -439 3z"></path>
            <path id="plPiZEfhH" d="M10615 10913 c-78 -15 -95 -50 -95 -195 0 -194 7 -198 310 -198 229 0 247 3 282 51 15 20 19 43 20 105 l1 79 -249 0 -249 0 0 -40 c0 -47 -24 -43 233 -44 166 -1 182 -3 182 -18 -1 -47 -7 -48 -224 -47 -113 0 -208 3 -212 6 -10 11 -11 192 -1 206 7 9 73 12 267 12 l257 0 -1 43 -2 42 -249 1 c-138 0 -259 -1 -270 -3z"></path>
            <path id="p1Ao2370UI" d="M11216 10912 c-10 -17 -4 -280 7 -312 7 -19 27 -44 46 -57 32 -22 44 -23 193 -23 l159 0 -3 43 -3 42 -145 3 c-80 1 -151 4 -157 7 -9 3 -13 47 -15 152 l-3 147 -37 2 c-21 2 -39 0 -42 -4z"></path>
            <path id="pXEvKik2h" d="M11697 10911 c-1 -3 -2 -91 -2 -196 l0 -190 43 -3 42 -3 -2 198 -3 197 -38 1 c-21 1 -39 -1 -40 -4z"></path>
            <path id="pKj5FjrYS" d="M11941 10907 c-65 -23 -76 -52 -76 -193 l0 -124 33 -32 32 -33 224 -3 c183 -2 231 0 260 12 56 23 68 64 64 202 -3 113 -3 114 -36 146 l-32 33 -218 2 c-153 2 -227 -1 -251 -10z m449 -103 c15 -38 12 -157 -3 -178 -12 -17 -32 -19 -214 -19 -110 0 -205 3 -212 7 -12 8 -16 197 -4 209 3 4 100 7 215 7 l208 0 10 -26z"></path>
            <path id="p6OCtX6Ev" d="M12565 10911 c-3 -2 -5 -69 -5 -148 0 -236 10 -245 253 -241 l152 3 0 40 0 40 -145 3 c-80 1 -151 4 -157 7 -10 3 -13 43 -13 154 l0 150 -40 -2 c-23 -1 -43 -3 -45 -6z"></path>
            <path id="pecd7NDOo" d="M5717 10473 c-3 -5 -4 -24 -3 -43 1 -34 2 -35 41 -35 40 0 40 0 43 43 l3 42 -40 0 c-22 0 -42 -3 -44 -7z"></path>
            <path id="psYEdxx9l" d="M11697 10473 c-3 -5 -4 -24 -3 -43 1 -34 2 -35 41 -35 40 0 40 0 43 43 l3 42 -40 0 c-22 0 -42 -3 -44 -7z"></path>
            <path id="pZCrjVIBi" d="M5217 9303 c-2 -10 -21 -70 -40 -133 -119 -388 -170 -890 -144 -1420 4 -91 9 -181 11 -200 2 -19 7 -73 10 -120 40 -484 178 -1199 350 -1805 80 -280 229 -725 243 -725 7 0 13 4 13 9 0 5 11 74 24 153 87 513 125 961 133 1559 6 501 -8 862 -47 1209 -37 324 -53 439 -101 710 -29 161 -38 207 -79 380 -10 47 -17 94 -14 106 4 15 -10 33 -63 80 -115 101 -265 214 -283 214 -4 0 -10 -8 -13 -17z"></path>
            <path id="p94bLLEPq" d="M7667 9273 l38 -46 3 38 c4 42 -8 55 -51 55 l-28 0 38 -47z"></path>
            <path id="pb65GbrV2" d="M9283 8545 c-25 -28 -63 -578 -63 -921 0 -518 55 -1168 146 -1724 34 -208 100 -563 124 -665 5 -22 19 -85 31 -140 19 -91 66 -292 105 -455 115 -470 404 -1428 440 -1456 8 -6 14 -19 14 -28 0 -10 10 -46 22 -82 19 -53 27 -64 45 -64 23 0 23 0 -12 97 -19 53 -33 98 -31 100 3 4 27 -32 95 -144 93 -155 207 -400 240 -522 l18 -66 6 65 c4 36 7 112 7 170 1 107 3 145 14 285 17 210 40 390 81 635 44 259 86 587 101 770 3 41 7 80 9 87 5 17 -49 276 -80 387 -37 127 -115 332 -180 473 -50 107 -52 115 -24 83 77 -89 238 -333 286 -435 l24 -50 -6 305 c-2 168 -7 325 -9 350 -3 25 -10 99 -16 165 -15 171 -26 230 -65 361 -89 292 -214 547 -388 792 -80 113 -157 203 -286 336 -113 117 -105 112 109 -58 162 -129 330 -277 380 -335 l40 -46 -31 90 c-212 613 -556 1145 -996 1537 -134 120 -134 120 -150 103z"></path>
            <path id="p12tBIQz0u" d="M8710 5955 c0 -28 4 -35 20 -35 16 0 20 7 20 35 0 28 -4 35 -20 35 -16 0 -20 -7 -20 -35z"></path>
            <path id="pEK68kKxN" d="M8696 4768 c-3 -13 -8 -75 -11 -138 -3 -63 -15 -221 -25 -350 -11 -129 -22 -264 -25 -300 -6 -75 -15 -164 -20 -200 -11 -73 -55 -625 -60 -750 -38 -917 106 -1495 504 -2025 85 -113 290 -324 396 -407 400 -314 825 -488 1365 -557 175 -23 573 -28 687 -10 66 11 74 14 71 32 -2 17 -15 23 -68 33 -225 43 -601 222 -875 418 -266 190 -579 509 -797 811 -472 656 -823 1572 -1008 2630 -11 66 -25 152 -31 190 -6 39 -15 99 -20 135 -24 164 -39 291 -45 396 -5 85 -10 114 -20 114 -8 0 -16 -10 -18 -22z"></path>
        </g>
    </g>
    <g id="l1KJxXS1qsbkvreRs0f0fAl" fill="rgb(10,40,86)" style="transform: none;">
        <g>
            <path id="p1BJ0NS1dF" d="M7680 9309 c0 -5 -7 -9 -15 -9 -10 0 10 -34 53 -92 299 -405 514 -828 676 -1323 120 -370 227 -872 261 -1230 3 -33 8 -69 10 -80 2 -11 7 -58 10 -105 4 -47 8 -96 11 -110 2 -14 7 -97 10 -185 3 -88 8 -167 11 -175 12 -35 15 -621 4 -816 -23 -421 -17 -563 38 -934 5 -36 14 -96 20 -135 80 -536 228 -1119 406 -1601 252 -681 585 -1231 1004 -1658 279 -283 540 -475 856 -627 149 -72 371 -153 452 -165 26 -3 53 -11 60 -16 6 -5 42 -8 80 -6 l68 3 -74 23 c-448 141 -784 510 -972 1069 -69 205 -136 522 -154 728 -4 39 -10 104 -14 145 -5 41 -9 102 -10 135 -1 46 -13 89 -51 185 -44 113 -215 576 -291 790 -17 47 -34 90 -39 95 -36 44 -333 1042 -434 1455 -39 163 -86 364 -105 455 -12 55 -26 118 -31 140 -24 101 -90 455 -124 665 -111 677 -162 1417 -138 1983 7 155 19 347 27 427 8 80 15 150 15 156 0 7 10 14 22 17 22 6 22 7 -7 32 -107 95 -339 255 -520 360 -88 51 -357 185 -371 185 -3 0 -24 8 -47 19 -191 85 -697 230 -697 200z"></path>
            <path id="p11JRPimmB" d="M5541 9054 c-12 -14 -11 -27 4 -92 95 -416 143 -704 195 -1162 53 -469 65 -1287 26 -1780 -28 -346 -81 -775 -122 -980 -8 -41 -14 -86 -14 -100 0 -33 60 -191 70 -185 14 9 131 215 210 370 97 190 161 380 185 550 4 28 10 59 12 70 3 11 6 72 8 135 5 166 -27 364 -84 517 -17 47 -17 52 -3 44 10 -5 31 -24 48 -43 87 -93 151 -232 169 -365 4 -29 10 -55 15 -58 8 -5 58 168 96 335 86 378 49 742 -104 1034 -20 39 -65 108 -99 154 -40 53 -54 78 -40 70 40 -21 254 -242 287 -296 18 -29 34 -52 35 -50 2 2 -6 73 -16 158 -41 332 -118 589 -264 885 -134 271 -280 478 -495 697 -93 96 -107 106 -119 92z"></path>
        </g>
    </g>
    <g id="l5UrUy3CNjpnJvVy05W4Ofc" fill="rgb(191,146,0)" style="transform: none;">
        <g>
            <path id="pPBkjw270" d="M6630 9318 c0 -2 18 -57 40 -123 99 -295 158 -604 191 -1010 13 -167 7 -723 -11 -892 -6 -54 -15 -145 -21 -203 -6 -58 -12 -116 -14 -130 -2 -14 -11 -79 -20 -145 -14 -107 -33 -228 -64 -410 -7 -39 -7 -61 -1 -63 6 -2 10 -15 10 -28 0 -34 50 -208 61 -212 5 -2 9 -17 9 -32 0 -16 22 -118 49 -227 83 -337 184 -861 206 -1076 4 -37 10 -67 14 -67 4 0 5 -18 3 -40 -2 -22 0 -40 5 -40 5 0 7 -16 5 -35 -2 -19 -1 -43 3 -52 4 -10 7 -35 6 -55 -2 -21 1 -43 5 -50 9 -14 14 -94 13 -195 0 -40 3 -73 8 -73 16 0 24 -576 10 -775 -19 -279 -19 -279 -3 -265 14 10 16 10 16 -6 -1 -49 -53 -396 -82 -541 l-32 -163 24 -25 23 -25 15 31 c8 17 31 42 51 57 149 110 365 312 495 462 50 58 93 107 96 110 3 3 18 23 35 45 33 45 36 48 70 90 14 17 28 38 31 48 3 9 10 17 15 17 5 0 9 7 9 15 0 8 5 15 10 15 6 0 10 7 10 15 0 8 5 15 10 15 6 0 10 7 10 15 0 8 4 15 10 15 5 0 12 11 16 25 3 14 10 25 15 25 5 0 9 6 9 13 0 8 9 24 20 37 11 13 23 34 26 47 4 13 10 23 14 23 4 0 18 25 30 56 l23 56 -27 121 c-36 156 -94 326 -150 441 -24 50 -43 92 -41 94 6 7 202 -297 238 -370 22 -43 40 -78 41 -78 1 0 2 8 2 18 2 52 15 221 19 242 2 14 7 72 10 130 3 58 8 114 10 125 2 11 7 72 10 135 4 63 9 118 12 123 2 4 4 75 4 157 -2 536 -137 1079 -348 1396 -61 93 -59 94 21 10 41 -43 104 -118 138 -167 73 -104 181 -293 205 -361 18 -48 40 -85 47 -77 2 2 10 175 17 384 10 307 10 399 0 475 -70 523 -275 955 -626 1319 -55 57 -93 101 -85 96 111 -62 267 -182 388 -299 56 -54 102 -96 102 -93 0 40 -190 431 -290 597 -232 386 -535 758 -859 1053 -179 164 -311 272 -311 255z"></path>
        </g>
    </g>
    <g id="l6WGTaZtCb77DhOp86Bd9et" fill="rgb(248,191,0)" style="transform: none;">
        <g>
            <path id="pWTV05wQM" d="M6730 6415 c-1 -62 -105 -562 -194 -925 -76 -314 -123 -538 -151 -720 -59 -378 -55 -681 11 -1009 61 -303 201 -661 371 -949 54 -92 191 -300 203 -307 4 -3 11 35 14 83 4 48 12 115 17 148 21 138 94 341 140 390 13 14 20 35 20 60 -1 22 3 91 7 154 12 199 8 850 -6 850 -4 0 -8 35 -9 78 -1 153 -3 181 -12 186 -5 3 -6 25 -4 50 3 24 1 46 -5 50 -5 3 -7 26 -4 51 2 25 1 45 -4 45 -5 0 -8 18 -6 40 3 24 0 40 -6 40 -7 0 -9 14 -5 35 3 21 2 35 -5 35 -6 0 -8 16 -5 40 3 23 1 40 -4 40 -5 0 -8 14 -5 30 2 17 0 30 -5 30 -5 0 -7 16 -5 35 3 21 0 35 -7 35 -6 0 -8 11 -4 30 3 19 1 30 -5 30 -7 0 -9 11 -5 30 3 19 1 30 -6 30 -7 0 -9 9 -5 25 4 15 2 25 -5 25 -6 0 -8 11 -4 30 3 19 1 30 -5 30 -7 0 -9 11 -6 30 4 17 2 30 -3 30 -6 0 -8 11 -5 25 2 14 0 25 -5 25 -6 0 -8 11 -5 25 2 14 0 25 -5 25 -6 0 -8 11 -5 25 2 14 0 25 -5 25 -6 0 -8 11 -5 25 2 14 0 25 -5 25 -6 0 -8 11 -5 25 2 14 0 25 -6 25 -6 0 -8 9 -5 20 3 11 1 20 -4 20 -6 0 -8 11 -5 25 2 14 0 25 -6 25 -6 0 -8 9 -5 20 3 11 1 20 -4 20 -6 0 -8 11 -5 25 2 14 0 25 -6 25 -6 0 -8 9 -5 20 3 11 1 20 -5 20 -6 0 -8 9 -5 20 3 11 1 20 -5 20 -6 0 -8 9 -5 20 3 11 1 20 -5 20 -6 0 -8 9 -5 20 3 11 1 20 -5 20 -6 0 -8 9 -5 20 3 11 1 20 -5 20 -6 0 -8 9 -5 20 3 11 1 20 -5 20 -6 0 -8 9 -5 20 3 11 1 20 -5 20 -6 0 -8 9 -5 20 3 11 1 20 -3 20 -5 0 -10 17 -11 37 -1 21 -6 39 -12 41 -5 2 -7 10 -4 18 3 8 1 14 -5 14 -6 0 -8 9 -5 20 3 11 0 20 -6 20 -5 0 -8 7 -5 15 4 8 2 15 -4 15 -6 0 -8 9 -5 20 3 11 0 20 -6 20 -5 0 -8 7 -5 15 4 8 2 15 -2 15 -5 0 -10 14 -10 32 -1 18 -6 34 -13 36 -6 2 -9 8 -6 13 3 5 -1 21 -9 36 l-15 28 -1 -30z"></path>
            <path id="phGjYMESR" d="M8078 3614 c-9 -11 -24 -38 -33 -61 -10 -24 -21 -43 -25 -43 -4 0 -10 -10 -14 -23 -3 -13 -15 -34 -26 -47 -11 -13 -20 -29 -20 -37 0 -7 -4 -13 -9 -13 -5 0 -12 -11 -15 -25 -4 -14 -11 -25 -16 -25 -6 0 -10 -7 -10 -15 0 -8 -4 -15 -10 -15 -5 0 -10 -7 -10 -15 0 -8 -4 -15 -10 -15 -5 0 -10 -7 -10 -15 0 -8 -4 -15 -9 -15 -5 0 -12 -8 -15 -17 -3 -10 -17 -31 -31 -48 -34 -42 -37 -45 -70 -90 -17 -22 -32 -42 -35 -45 -3 -3 -46 -52 -96 -110 -107 -124 -244 -256 -381 -369 -134 -110 -173 -148 -173 -169 0 -42 290 -359 499 -545 205 -182 333 -278 489 -366 146 -82 221 -130 260 -164 12 -11 22 -18 22 -14 0 3 -14 60 -30 125 -60 239 -117 580 -139 832 -20 226 -33 617 -26 820 6 197 -1 315 -33 504 -7 36 -8 37 -24 20z"></path>
        </g>
    </g>
</svg>